<svg width="29" height="29" viewBox="0 0 29 29" fill="none" xmlns="http://www.w3.org/2000/svg">
<g id="Group">
<path id="Vector" d="M4.83336 7.75026L0.914734 3.83284L2.62453 2.12305L6.54194 6.04167H24.9594C25.1477 6.04166 25.3334 6.08567 25.5017 6.1702C25.67 6.25473 25.8163 6.37743 25.9287 6.5285C26.0412 6.67958 26.1168 6.85486 26.1494 7.04034C26.1821 7.22583 26.171 7.41638 26.1169 7.5968L23.2169 17.2635C23.1423 17.5125 22.9894 17.7308 22.7809 17.886C22.5723 18.0412 22.3193 18.125 22.0594 18.125H7.25003V20.5417H20.5417V22.9583H6.04169C5.72122 22.9583 5.41388 22.831 5.18727 22.6044C4.96067 22.3778 4.83336 22.0705 4.83336 21.75V7.75026ZM7.25003 8.45834V15.7083H21.1604L23.3354 8.45834H7.25003ZM6.64586 27.7917C6.16515 27.7917 5.70414 27.6007 5.36423 27.2608C5.02432 26.9209 4.83336 26.4599 4.83336 25.9792C4.83336 25.4985 5.02432 25.0375 5.36423 24.6975C5.70414 24.3576 6.16515 24.1667 6.64586 24.1667C7.12656 24.1667 7.58758 24.3576 7.92749 24.6975C8.2674 25.0375 8.45836 25.4985 8.45836 25.9792C8.45836 26.4599 8.2674 26.9209 7.92749 27.2608C7.58758 27.6007 7.12656 27.7917 6.64586 27.7917ZM21.1459 27.7917C20.6652 27.7917 20.2041 27.6007 19.8642 27.2608C19.5243 26.9209 19.3334 26.4599 19.3334 25.9792C19.3334 25.4985 19.5243 25.0375 19.8642 24.6975C20.2041 24.3576 20.6652 24.1667 21.1459 24.1667C21.6266 24.1667 22.0876 24.3576 22.4275 24.6975C22.7674 25.0375 22.9584 25.4985 22.9584 25.9792C22.9584 26.4599 22.7674 26.9209 22.4275 27.2608C22.0876 27.6007 21.6266 27.7917 21.1459 27.7917Z" fill="#F3F4F6"/>
</g>
</svg>
